<mxfile host="65bd71144e">
    <diagram id="rCLBzX73cxt3nx22-23g" name="Page-1">
        <mxGraphModel dx="875" dy="662" grid="1" gridSize="10" guides="1" tooltips="1" connect="1" arrows="1" fold="1" page="1" pageScale="1" pageWidth="850" pageHeight="1100" math="0" shadow="0">
            <root>
                <mxCell id="0"/>
                <mxCell id="1" parent="0"/>
                <mxCell id="2" value="ConsolePrinter" style="swimlane;fontStyle=1;align=center;verticalAlign=top;childLayout=stackLayout;horizontal=1;startSize=26;horizontalStack=0;resizeParent=1;resizeParentMax=0;resizeLast=0;collapsible=1;marginBottom=0;" parent="1" vertex="1">
                    <mxGeometry x="44" y="250" width="210" height="60" as="geometry">
                        <mxRectangle x="240" y="250" width="130" height="30" as="alternateBounds"/>
                    </mxGeometry>
                </mxCell>
                <mxCell id="3" value="" style="line;strokeWidth=1;fillColor=none;align=left;verticalAlign=middle;spacingTop=-1;spacingLeft=3;spacingRight=3;rotatable=0;labelPosition=right;points=[];portConstraint=eastwest;strokeColor=inherit;" parent="2" vertex="1">
                    <mxGeometry y="26" width="210" height="8" as="geometry"/>
                </mxCell>
                <mxCell id="4" value="+ PrintRecipe (recipe : Recipe): void" style="text;strokeColor=none;fillColor=none;align=left;verticalAlign=top;spacingLeft=4;spacingRight=4;overflow=hidden;rotatable=0;points=[[0,0.5],[1,0.5]];portConstraint=eastwest;" parent="2" vertex="1">
                    <mxGeometry y="34" width="210" height="26" as="geometry"/>
                </mxCell>
                <mxCell id="5" value="FilePrinter" style="swimlane;fontStyle=1;align=center;verticalAlign=top;childLayout=stackLayout;horizontal=1;startSize=26;horizontalStack=0;resizeParent=1;resizeParentMax=0;resizeLast=0;collapsible=1;marginBottom=0;" parent="1" vertex="1">
                    <mxGeometry x="289" y="250" width="210" height="60" as="geometry">
                        <mxRectangle x="240" y="250" width="130" height="30" as="alternateBounds"/>
                    </mxGeometry>
                </mxCell>
                <mxCell id="6" value="" style="line;strokeWidth=1;fillColor=none;align=left;verticalAlign=middle;spacingTop=-1;spacingLeft=3;spacingRight=3;rotatable=0;labelPosition=right;points=[];portConstraint=eastwest;strokeColor=inherit;" parent="5" vertex="1">
                    <mxGeometry y="26" width="210" height="8" as="geometry"/>
                </mxCell>
                <mxCell id="7" value="+ PrintRecipe (recipe : Recipe): void" style="text;strokeColor=none;fillColor=none;align=left;verticalAlign=top;spacingLeft=4;spacingRight=4;overflow=hidden;rotatable=0;points=[[0,0.5],[1,0.5]];portConstraint=eastwest;" parent="5" vertex="1">
                    <mxGeometry y="34" width="210" height="26" as="geometry"/>
                </mxCell>
                <mxCell id="8" value="«interface»&lt;br&gt;&lt;b&gt;IPrinter&lt;/b&gt;" style="html=1;" parent="1" vertex="1">
                    <mxGeometry x="209" y="110" width="110" height="50" as="geometry"/>
                </mxCell>
                <mxCell id="9" value="Implements" style="endArrow=block;endSize=16;endFill=0;html=1;exitX=0.5;exitY=0;exitDx=0;exitDy=0;entryX=0.25;entryY=1;entryDx=0;entryDy=0;" parent="1" source="2" target="8" edge="1">
                    <mxGeometry width="160" relative="1" as="geometry">
                        <mxPoint x="69" y="190" as="sourcePoint"/>
                        <mxPoint x="229" y="190" as="targetPoint"/>
                    </mxGeometry>
                </mxCell>
                <mxCell id="10" value="Implements" style="endArrow=block;endSize=16;endFill=0;html=1;exitX=0.5;exitY=0;exitDx=0;exitDy=0;entryX=0.75;entryY=1;entryDx=0;entryDy=0;" parent="1" source="5" target="8" edge="1">
                    <mxGeometry width="160" relative="1" as="geometry">
                        <mxPoint x="209" y="250" as="sourcePoint"/>
                        <mxPoint x="296.5" y="160" as="targetPoint"/>
                    </mxGeometry>
                </mxCell>
                <mxCell id="11" value="Recipe" style="swimlane;fontStyle=1;align=center;verticalAlign=top;childLayout=stackLayout;horizontal=1;startSize=26;horizontalStack=0;resizeParent=1;resizeParentMax=0;resizeLast=0;collapsible=1;marginBottom=0;" parent="1" vertex="1">
                    <mxGeometry x="550" y="90" width="470" height="130" as="geometry"/>
                </mxCell>
                <mxCell id="12" value="+ FinalProduct : Product" style="text;strokeColor=none;fillColor=none;align=left;verticalAlign=top;spacingLeft=4;spacingRight=4;overflow=hidden;rotatable=0;points=[[0,0.5],[1,0.5]];portConstraint=eastwest;" parent="11" vertex="1">
                    <mxGeometry y="26" width="470" height="24" as="geometry"/>
                </mxCell>
                <mxCell id="13" value="" style="line;strokeWidth=1;fillColor=none;align=left;verticalAlign=middle;spacingTop=-1;spacingLeft=3;spacingRight=3;rotatable=0;labelPosition=right;points=[];portConstraint=eastwest;strokeColor=inherit;" parent="11" vertex="1">
                    <mxGeometry y="50" width="470" height="8" as="geometry"/>
                </mxCell>
                <mxCell id="14" value="+ AddStep(input : Product, quantity : double, equipment : Equipment, time : int) : void&#10;+ RemoveStep(step : Step): void&#10;+ GetTextToPrint() : string&#10;+ GetProductionCost() : double" style="text;strokeColor=none;fillColor=none;align=left;verticalAlign=top;spacingLeft=4;spacingRight=4;overflow=hidden;rotatable=0;points=[[0,0.5],[1,0.5]];portConstraint=eastwest;" parent="11" vertex="1">
                    <mxGeometry y="58" width="470" height="72" as="geometry"/>
                </mxCell>
                <mxCell id="15" value="Step" style="swimlane;fontStyle=1;align=center;verticalAlign=top;childLayout=stackLayout;horizontal=1;startSize=26;horizontalStack=0;resizeParent=1;resizeParentMax=0;resizeLast=0;collapsible=1;marginBottom=0;" parent="1" vertex="1">
                    <mxGeometry x="1116" y="90" width="195" height="140" as="geometry"/>
                </mxCell>
                <mxCell id="16" value="+ Input : Product&#10;+ Quantity : double&#10;+ Equipment : Equipment&#10;+ Time : int" style="text;strokeColor=none;fillColor=none;align=left;verticalAlign=top;spacingLeft=4;spacingRight=4;overflow=hidden;rotatable=0;points=[[0,0.5],[1,0.5]];portConstraint=eastwest;" parent="15" vertex="1">
                    <mxGeometry y="26" width="195" height="64" as="geometry"/>
                </mxCell>
                <mxCell id="17" value="" style="line;strokeWidth=1;fillColor=none;align=left;verticalAlign=middle;spacingTop=-1;spacingLeft=3;spacingRight=3;rotatable=0;labelPosition=right;points=[];portConstraint=eastwest;strokeColor=inherit;" parent="15" vertex="1">
                    <mxGeometry y="90" width="195" height="8" as="geometry"/>
                </mxCell>
                <mxCell id="18" value="+ GetStepCost() : double&#10;+ GetTextToPrint() : string" style="text;strokeColor=none;fillColor=none;align=left;verticalAlign=top;spacingLeft=4;spacingRight=4;overflow=hidden;rotatable=0;points=[[0,0.5],[1,0.5]];portConstraint=eastwest;" parent="15" vertex="1">
                    <mxGeometry y="98" width="195" height="42" as="geometry"/>
                </mxCell>
                <mxCell id="19" value="Equipment" style="swimlane;fontStyle=1;align=center;verticalAlign=top;childLayout=stackLayout;horizontal=1;startSize=26;horizontalStack=0;resizeParent=1;resizeParentMax=0;resizeLast=0;collapsible=1;marginBottom=0;" parent="1" vertex="1">
                    <mxGeometry x="1388" y="89" width="195" height="78" as="geometry">
                        <mxRectangle x="540" y="340" width="100" height="30" as="alternateBounds"/>
                    </mxGeometry>
                </mxCell>
                <mxCell id="20" value="+ Description : string&#10;+ HourlyCost : double" style="text;strokeColor=none;fillColor=none;align=left;verticalAlign=top;spacingLeft=4;spacingRight=4;overflow=hidden;rotatable=0;points=[[0,0.5],[1,0.5]];portConstraint=eastwest;" parent="19" vertex="1">
                    <mxGeometry y="26" width="195" height="44" as="geometry"/>
                </mxCell>
                <mxCell id="21" value="" style="line;strokeWidth=1;fillColor=none;align=left;verticalAlign=middle;spacingTop=-1;spacingLeft=3;spacingRight=3;rotatable=0;labelPosition=right;points=[];portConstraint=eastwest;strokeColor=inherit;" parent="19" vertex="1">
                    <mxGeometry y="70" width="195" height="8" as="geometry"/>
                </mxCell>
                <mxCell id="22" value="Product" style="swimlane;fontStyle=1;align=center;verticalAlign=top;childLayout=stackLayout;horizontal=1;startSize=26;horizontalStack=0;resizeParent=1;resizeParentMax=0;resizeLast=0;collapsible=1;marginBottom=0;" parent="1" vertex="1">
                    <mxGeometry x="1388" y="179" width="195" height="78" as="geometry"/>
                </mxCell>
                <mxCell id="23" value="+ Description : string&#10;+ UnitCost : double" style="text;strokeColor=none;fillColor=none;align=left;verticalAlign=top;spacingLeft=4;spacingRight=4;overflow=hidden;rotatable=0;points=[[0,0.5],[1,0.5]];portConstraint=eastwest;" parent="22" vertex="1">
                    <mxGeometry y="26" width="195" height="44" as="geometry"/>
                </mxCell>
                <mxCell id="24" value="" style="line;strokeWidth=1;fillColor=none;align=left;verticalAlign=middle;spacingTop=-1;spacingLeft=3;spacingRight=3;rotatable=0;labelPosition=right;points=[];portConstraint=eastwest;strokeColor=inherit;" parent="22" vertex="1">
                    <mxGeometry y="70" width="195" height="8" as="geometry"/>
                </mxCell>
                <mxCell id="25" value="Use" style="endArrow=open;endSize=12;dashed=1;html=1;" parent="1" edge="1">
                    <mxGeometry width="160" relative="1" as="geometry">
                        <mxPoint x="320" y="134" as="sourcePoint"/>
                        <mxPoint x="540" y="134" as="targetPoint"/>
                    </mxGeometry>
                </mxCell>
                <mxCell id="29" value="1..*" style="text;html=1;align=center;verticalAlign=middle;resizable=0;points=[];autosize=1;strokeColor=none;fillColor=none;" parent="1" vertex="1">
                    <mxGeometry x="1076" y="120" width="40" height="30" as="geometry"/>
                </mxCell>
                <mxCell id="31" value="1" style="endArrow=open;html=1;endSize=12;startArrow=diamondThin;startSize=14;startFill=1;edgeStyle=orthogonalEdgeStyle;align=left;verticalAlign=bottom;" edge="1" parent="1">
                    <mxGeometry x="-1" y="3" relative="1" as="geometry">
                        <mxPoint x="1020" y="150" as="sourcePoint"/>
                        <mxPoint x="1116" y="150" as="targetPoint"/>
                    </mxGeometry>
                </mxCell>
                <mxCell id="36" value="" style="endArrow=diamondThin;endFill=0;endSize=24;html=1;exitX=0;exitY=0.5;exitDx=0;exitDy=0;entryX=1.009;entryY=0.332;entryDx=0;entryDy=0;entryPerimeter=0;" edge="1" parent="1" source="20" target="16">
                    <mxGeometry width="160" relative="1" as="geometry">
                        <mxPoint x="1371" y="134.55" as="sourcePoint"/>
                        <mxPoint x="1311" y="134.55" as="targetPoint"/>
                    </mxGeometry>
                </mxCell>
                <mxCell id="37" value="" style="endArrow=diamondThin;endFill=0;endSize=24;html=1;exitX=0;exitY=0.5;exitDx=0;exitDy=0;entryX=1.009;entryY=0.332;entryDx=0;entryDy=0;entryPerimeter=0;" edge="1" parent="1">
                    <mxGeometry width="160" relative="1" as="geometry">
                        <mxPoint x="1386.25" y="200" as="sourcePoint"/>
                        <mxPoint x="1311.005" y="200.24800000000005" as="targetPoint"/>
                    </mxGeometry>
                </mxCell>
                <mxCell id="38" value="1" style="text;html=1;align=center;verticalAlign=middle;resizable=0;points=[];autosize=1;strokeColor=none;fillColor=none;" vertex="1" parent="1">
                    <mxGeometry x="1309" y="104" width="30" height="30" as="geometry"/>
                </mxCell>
                <mxCell id="39" value="1" style="text;html=1;align=center;verticalAlign=middle;resizable=0;points=[];autosize=1;strokeColor=none;fillColor=none;" vertex="1" parent="1">
                    <mxGeometry x="1307" y="168" width="30" height="30" as="geometry"/>
                </mxCell>
                <mxCell id="42" value="" style="endArrow=open;endSize=12;dashed=1;html=1;exitX=0.895;exitY=1.022;exitDx=0;exitDy=0;exitPerimeter=0;entryX=-0.003;entryY=0.956;entryDx=0;entryDy=0;entryPerimeter=0;" edge="1" parent="1" source="14" target="23">
                    <mxGeometry width="160" relative="1" as="geometry">
                        <mxPoint x="1130" y="260" as="sourcePoint"/>
                        <mxPoint x="1290" y="350" as="targetPoint"/>
                        <Array as="points">
                            <mxPoint x="980" y="250"/>
                        </Array>
                    </mxGeometry>
                </mxCell>
                <mxCell id="44" value="" style="endArrow=open;endSize=12;dashed=1;html=1;exitX=0.887;exitY=-0.029;exitDx=0;exitDy=0;exitPerimeter=0;" edge="1" parent="1" source="11">
                    <mxGeometry width="160" relative="1" as="geometry">
                        <mxPoint x="971.2300000000001" y="20.004000000000048" as="sourcePoint"/>
                        <mxPoint x="1400" y="86" as="targetPoint"/>
                        <Array as="points">
                            <mxPoint x="980.58" y="48.41999999999999"/>
                            <mxPoint x="1370" y="48"/>
                        </Array>
                    </mxGeometry>
                </mxCell>
            </root>
        </mxGraphModel>
    </diagram>
</mxfile>